<svg width="6" height="6" viewBox="0 0 6 6" fill="none" xmlns="http://www.w3.org/2000/svg">
<path d="M1.08065 3.04225L0 2.63662L0.370968 1.60563L1.41935 1.96056C1.96774 2.16338 2.27419 2.3493 2.6129 2.58592C2.51613 2.18028 2.46774 1.77465 2.46774 1.2V0H3.51613V1.2C3.51613 1.77465 3.46774 2.19718 3.3871 2.58592C3.69355 2.3662 4.01613 2.16338 4.56452 1.96056L5.62903 1.58873L6 2.63662L4.90323 3.04225C4.3871 3.22817 3.96774 3.29577 3.6129 3.34648C3.95161 3.6507 4.19355 3.90423 4.48387 4.36056L5.12903 5.37465L4.25806 6L3.6129 5.03662C3.27419 4.54648 3.1129 4.15775 2.96774 3.80282C2.85484 4.24225 2.64516 4.64789 2.37097 5.03662L1.69355 6L0.822581 5.37465L1.46774 4.36056C1.79032 3.88732 2.04839 3.6338 2.37097 3.34648C1.91935 3.27887 1.56452 3.22817 1.08065 3.04225Z" fill="#002E18"/>
</svg>
