<svg width="16" height="16" viewBox="0 0 16 16" fill="none" xmlns="http://www.w3.org/2000/svg">
<path d="M1.47549 8.1939C1.28584 8.00426 1.28584 7.69677 1.47549 7.50712L2.84905 6.13356C5.6938 3.28881 10.306 3.28881 13.1508 6.13356L14.5243 7.50712C14.714 7.69677 14.714 8.00426 14.5243 8.1939L13.1508 9.56747C10.306 12.4122 5.6938 12.4122 2.84905 9.56747L1.47549 8.1939Z" stroke="#607670"/>
<path d="M9.87341 7.85051C9.87341 8.92333 9.00371 9.79303 7.93089 9.79303C6.85807 9.79303 5.98838 8.92333 5.98838 7.85051C5.98838 6.77769 6.85807 5.908 7.93089 5.908C9.00371 5.908 9.87341 6.77769 9.87341 7.85051Z" stroke="#607670"/>
</svg>
