<svg width="24" height="24" viewBox="0 0 24 24" fill="none" xmlns="http://www.w3.org/2000/svg">
<path d="M17.966 7.69068L15.6433 5.36668C15.2109 4.93211 14.6966 4.58757 14.1301 4.35299C13.5637 4.11841 12.9564 3.99844 12.3433 4.00002H9.33333C8.4496 4.00107 7.60237 4.3526 6.97748 4.9775C6.35259 5.60239 6.00106 6.44962 6 7.33335V16.6667C6.00106 17.5504 6.35259 18.3976 6.97748 19.0225C7.60237 19.6474 8.4496 19.999 9.33333 20H16C16.8837 19.999 17.731 19.6474 18.3559 19.0225C18.9807 18.3976 19.3323 17.5504 19.3333 16.6667V10.99C19.335 10.377 19.215 9.76968 18.9803 9.20333C18.7456 8.63699 18.4008 8.12284 17.966 7.69068ZM17.0233 8.63335C17.2269 8.84278 17.402 9.07814 17.544 9.33335H14.6667C14.4899 9.33335 14.3203 9.26311 14.1953 9.13809C14.0702 9.01306 14 8.84349 14 8.66668V5.78935C14.2553 5.9313 14.4909 6.10612 14.7007 6.30935L17.0233 8.63335ZM18 16.6667C18 17.1971 17.7893 17.7058 17.4142 18.0809C17.0391 18.456 16.5304 18.6667 16 18.6667H9.33333C8.8029 18.6667 8.29419 18.456 7.91912 18.0809C7.54405 17.7058 7.33333 17.1971 7.33333 16.6667V7.33335C7.33333 6.80292 7.54405 6.29421 7.91912 5.91914C8.29419 5.54406 8.8029 5.33335 9.33333 5.33335H12.3433C12.4527 5.33335 12.5587 5.35468 12.6667 5.36468V8.66668C12.6667 9.19711 12.8774 9.70582 13.2525 10.0809C13.6275 10.456 14.1362 10.6667 14.6667 10.6667H17.9687C17.9787 10.7747 18 10.88 18 10.99V16.6667Z" fill="#5D6F67"/>
</svg>
